# xmcd
#
# Track frame offsets: 
#        150
#        16816
#        30457
#        48226
#        65220
#        83272
#        100364
#        118269
#        136046
#        151660
#        166095
#        180967
#        185181
#        202437
#        219499
#
# Disc length: 3128 seconds
#
# Revision: 0
# Processed by: cddbd v1.5.2PL0 Copyright (c) Steve Scherf et al.
# Submitted via: ExactAudioCopy v1.0b1
#
DISCID=c40c360f
DTITLE=Brad Paisley - Moonshine in the Trunk
DYEAR=2014
DGENRE=Country
TTITLE0=Crushin' It
TTITLE1=River Bank
TTITLE2=Perfect Storm
TTITLE3=High Life
TTITLE4=Moonshine in the Trunk
TTITLE5=Shattered Glass
TTITLE6=Limes
TTITLE7=You Shouldn't Have To
TTITLE8=4WP
TTITLE9=Cover Girl
TTITLE10=Gone Green
TTITLE11=JFK 1962
TTITLE12=American Flag on the Moon
TTITLE13=County Nation
TTITLE14=Me and Jesus (Extra Special Bonus Track)
EXTD=
EXTT0=
EXTT1=
EXTT2=
EXTT3=
EXTT4=
EXTT5=
EXTT6=
EXTT7=
EXTT8=
EXTT9=
EXTT10=
EXTT11=
EXTT12=
EXTT13=
EXTT14=
PLAYORDER=
